HIERARCHY
ROOT hip
{
  OFFSET 0 0 0
  CHANNELS 6 Xposition Yposition Zposition Zrotation Yrotation Xrotation
  JOINT abdomen
  {
    OFFSET 0 20.6881 -0.73152
    CHANNELS 3 Zrotation Xrotation Yrotation
    JOINT chest
    {
      OFFSET 0 11.7043 -0.48768
      CHANNELS 3 Zrotation Xrotation Yrotation
      JOINT neck
      {
        OFFSET 0 22.1894 -2.19456
        CHANNELS 3 Zrotation Xrotation Yrotation
        JOINT head
        {
          OFFSET -0.24384 7.07133 1.2192
          CHANNELS 3 Zrotation Xrotation Yrotation
          JOINT leftEye
          {
            OFFSET 4.14528 8.04674 8.04672
            CHANNELS 3 Zrotation Xrotation Yrotation
            End Site
            {
              OFFSET 1 0 0
            }
          }
          JOINT rightEye
          {
            OFFSET -3.6576 8.04674 8.04672
            CHANNELS 3 Zrotation Xrotation Yrotation
            End Site
            {
              OFFSET 1 0 0
            }
          }
        }
      }
      JOINT rCollar
      {
        OFFSET -2.68224 19.2634 -4.8768
        CHANNELS 3 Zrotation Xrotation Yrotation
        JOINT rShldr
        {
          OFFSET -8.77824 -1.95073 1.46304
          CHANNELS 3 Zrotation Xrotation Yrotation
          JOINT rForeArm
          {
            OFFSET -28.1742 -1.7115 0.48768
            CHANNELS 3 Zrotation Xrotation Yrotation
            JOINT rHand
            {
              OFFSET -22.5879 0.773209 7.07136
              CHANNELS 3 Zrotation Xrotation Yrotation
              JOINT rThumb1
              {
                OFFSET -1.2192 -0.487915 3.41376
                CHANNELS 3 Zrotation Xrotation Yrotation
                JOINT rThumb2
                {
                  OFFSET -3.37035 -0.52449 3.41376
                  CHANNELS 3 Zrotation Xrotation Yrotation
                  End Site
                  {
                    OFFSET -1.78271 -1.18214 1.43049
                  }
                }
              }
              JOINT rIndex1
              {
                OFFSET -7.75947 0.938293 5.60832
                CHANNELS 3 Zrotation Xrotation Yrotation
                JOINT rIndex2
                {
                  OFFSET -2.54057 -0.884171 1.56538
                  CHANNELS 3 Zrotation Xrotation Yrotation
                  End Site
                  {
                    OFFSET -1.62519 -0.234802 1.16502
                  }
                }
              }
              JOINT rMid1
              {
                OFFSET -8.24714 1.18213 3.41376
                CHANNELS 3 Zrotation Xrotation Yrotation
                JOINT rMid2
                {
                  OFFSET -3.10165 -0.590103 1.0647
                  CHANNELS 3 Zrotation Xrotation Yrotation
                  End Site
                  {
                    OFFSET -2.48547 -0.328903 0.83742
                  }
                }
              }
              JOINT rRing1
              {
                OFFSET -8.82822 0.546677 1.51678
                CHANNELS 3 Zrotation Xrotation Yrotation
                JOINT rRing2
                {
                  OFFSET -2.60934 -0.819778 -0.0198488
                  CHANNELS 3 Zrotation Xrotation Yrotation
                  End Site
                  {
                    OFFSET -2.33842 -0.294052 0.168128
                  }
                }
              }
              JOINT rPinky1
              {
                OFFSET -8.27202 -0.0477905 -0.4584
                CHANNELS 3 Zrotation Xrotation Yrotation
                JOINT rPinky2
                {
                  OFFSET -1.82734 -0.647385 -0.700984
                  CHANNELS 3 Zrotation Xrotation Yrotation
                  End Site
                  {
                    OFFSET -1.69225 -0.51767 -0.607171
                  }
                }
              }
            }
          }
        }
      }
      JOINT lCollar
      {
        OFFSET 2.68224 19.2634 -4.8768
        CHANNELS 3 Zrotation Xrotation Yrotation
        JOINT lShldr
        {
          OFFSET 8.77824 -1.95073 1.46304
          CHANNELS 3 Zrotation Xrotation Yrotation
          JOINT lForeArm
          {
            OFFSET 28.1742 -1.7115 0.48768
            CHANNELS 3 Zrotation Xrotation Yrotation
            JOINT lHand
            {
              OFFSET 22.5879 0.773209 7.07136
              CHANNELS 3 Zrotation Xrotation Yrotation
              JOINT lThumb1
              {
                OFFSET 1.2192 -0.487915 3.41376
                CHANNELS 3 Zrotation Xrotation Yrotation
                JOINT lThumb2
                {
                  OFFSET 3.37035 -0.52449 3.41376
                  CHANNELS 3 Zrotation Xrotation Yrotation
                  End Site
                  {
                    OFFSET 1.78271 -1.18214 1.43049
                  }
                }
              }
              JOINT lIndex1
              {
                OFFSET 7.75947 0.938293 5.60832
                CHANNELS 3 Zrotation Xrotation Yrotation
                JOINT lIndex2
                {
                  OFFSET 2.54057 -0.884171 1.56538
                  CHANNELS 3 Zrotation Xrotation Yrotation
                  End Site
                  {
                    OFFSET 1.62519 -0.234802 1.16502
                  }
                }
              }
              JOINT lMid1
              {
                OFFSET 8.24714 1.18213 3.41376
                CHANNELS 3 Zrotation Xrotation Yrotation
                JOINT lMid2
                {
                  OFFSET 3.10165 -0.590103 1.0647
                  CHANNELS 3 Zrotation Xrotation Yrotation
                  End Site
                  {
                    OFFSET 2.48547 -0.328903 0.83742
                  }
                }
              }
              JOINT lRing1
              {
                OFFSET 8.82822 0.546677 1.51678
                CHANNELS 3 Zrotation Xrotation Yrotation
                JOINT lRing2
                {
                  OFFSET 2.60934 -0.819778 -0.0198488
                  CHANNELS 3 Zrotation Xrotation Yrotation
                  End Site
                  {
                    OFFSET 2.33842 -0.294052 0.168128
                  }
                }
              }
              JOINT lPinky1
              {
                OFFSET 8.27202 -0.0477905 -0.4584
                CHANNELS 3 Zrotation Xrotation Yrotation
                JOINT lPinky2
                {
                  OFFSET 1.82734 -0.647385 -0.700984
                  CHANNELS 3 Zrotation Xrotation Yrotation
                  End Site
                  {
                    OFFSET 1.69225 -0.51767 -0.607171
                  }
                }
              }
            }
          }
        }
      }
    }
  }
  JOINT rButtock
  {
    OFFSET -8.77824 4.35084 1.2192
    CHANNELS 3 Zrotation Xrotation Yrotation
    JOINT rThigh
    {
      OFFSET 0 -1.70687 -2.19456
      CHANNELS 3 Zrotation Xrotation Yrotation
      JOINT rShin
      {
        OFFSET 0 -36.8199 0.73152
        CHANNELS 3 Zrotation Xrotation Yrotation
        JOINT rFoot
        {
          OFFSET 0.73152 -45.1104 -5.12064
          CHANNELS 3 Zrotation Xrotation Yrotation
          End Site
          {
            OFFSET -1.1221 -3.69964 12.103
          }
        }
      }
    }
  }
  JOINT lButtock
  {
    OFFSET 8.77824 4.35084 1.2192
    CHANNELS 3 Zrotation Xrotation Yrotation
    JOINT lThigh
    {
      OFFSET 0 -1.70687 -2.19456
      CHANNELS 3 Zrotation Xrotation Yrotation
      JOINT lShin
      {
        OFFSET 0 -36.8199 0.73152
        CHANNELS 3 Zrotation Xrotation Yrotation
        JOINT lFoot
        {
          OFFSET -0.73152 -45.1104 -5.12064
          CHANNELS 3 Zrotation Xrotation Yrotation
          End Site
          {
            OFFSET 1.1221 -3.69964 12.103
          }
        }
      }
    }
  }
}
MOTION
Frames:	8
Frame Time:	0.03333
0.0 0.0 0.0 0.0 0.0 0.0 0.0 0.0 0.0 0.0 0.0 0.0 0.0 0.0 0.0 0.0 0.0 0.0 0.0 0.0 0.0 0.0 0.0 0.0 0.0 0.0 0.0 0.0 0.0 0.0 0.0 0.0 0.0 0.0 0.0 0.0 0.0 0.0 0.0 0.0 0.0 0.0 0.0 0.0 0.0 0.0 0.0 0.0 0.0 0.0 0.0 0.0 0.0 0.0 0.0 0.0 0.0 0.0 0.0 0.0 0.0 0.0 0.0 0.0 0.0 0.0 0.0 0.0 0.0 0.0 0.0 0.0 0.0 0.0 0.0 0.0 0.0 0.0 0.0 0.0 0.0 0.0 0.0 0.0 0.0 0.0 0.0 0.0 0.0 0.0 0.0 0.0 0.0 0.0 0.0 0.0 0.0 0.0 0.0 0.0 0.0 0.0 0.0 0.0 0.0 0.0 0.0 0.0 0.0 0.0 0.0 0.0 0.0 0.0 0.0 0.0 0.0 0.0 0.0 0.0 0.0 0.0 0.0 0.0 0.0 0.0 0.0 0.0 0.0 0.0 0.0 0.0
0.21180000000000002 51.315200000000004 -0.0211 -38.544818 79.788097 -36.407379 0.091261 6.515731 -171.546156 0.777802 7.476252 -169.132828 -10.12001 29.482209 -112.430325 28.681938 33.083703 134.336146 0.0032 -0.0 -0.000446 0.0032 -0.0 -0.000446 -0.048762 0.292347 0.065627 65.255318 -14.329581 -0.798166 -43.550576 1.157731 143.365822 -165.349245 -59.397986 171.855905 116.309536 -50.010485 56.95441 178.94822 -76.080549 139.741159 -151.353593 -17.158477 121.13267 173.422048 -53.339714 109.581837 -36.036726 51.723232 29.831614 2.835711 1.674088 0.30035 -0.000776 0.022633 0.007065 11.110274 -13.792168 -1.71263 -152.50342 38.522446 -147.800243 -24.515737 -39.113207 -25.397851 150.168524 21.535555 -155.276178 -140.197679 4.626173 174.461635 -20.249817 -12.27128 -92.983905 22.29502 66.408275 -13.502863 7.759043 7.438828 -1.682414 65.947697 24.44857 -62.244279 156.112598 -25.994484 -122.311012 78.706263 57.431421 -61.903209 82.841691 61.111312 -74.531709 -3.067749 1.05983 -0.30481 0.000261 0.063757 -0.021045 153.061841 22.491633 -168.51675 80.939069 -51.227984 79.35978 147.133937 13.891858 143.223268 -0.002563 -0.000193 -0.001281 -31.165644 -29.588089 129.22823 108.643287 -69.100669 142.067849 -5.926691 72.038143 132.281731 0.0009 0.000158 -0.001157 70.852424 -44.404646 -180.0 82.378066 -27.932608 -1.306833 -153.057005 -13.65884 88.387379
0.3021 51.2965 -0.0375 -38.28322 79.81189 -36.116223 -0.333722 11.222598 0.051311 0.690447 -12.263649 19.414317 -5.040186 14.372215 -10.478783 20.496252 -18.673399 41.239826 0.000975 0.0 0.000782 -0.005323 0.0 -0.001902 -155.614251 -4.236418 161.990942 163.436077 63.955222 149.72116 17.321913 -82.593171 -134.651712 -133.850708 36.388927 120.510044 51.060303 -41.203997 12.855857 -30.287667 17.855959 0.324627 -173.601024 -52.692753 119.892629 -17.137961 42.634505 10.136414 -160.097568 -4.901188 142.969174 -167.432869 -17.360238 143.828322 0.003848 1.770417 0.556426 -5.882829 61.780643 18.400286 -135.822654 -11.89187 -133.184337 -137.096565 -12.803024 -133.961272 80.165722 68.371887 -83.260933 -122.438358 -21.408774 -129.942957 79.366182 -15.165517 -62.425025 -16.056903 -24.940978 -11.780923 166.631505 -4.304805 -89.771456 44.312887 -18.277342 -10.451575 77.667444 43.03033 -64.538436 163.058781 -7.960031 -113.907317 167.297924 -27.76779 -145.259096 88.697342 63.712398 -80.338017 145.120462 1.973838 179.750096 7.078007 -61.105864 27.893444 -39.986764 85.641207 0.897377 148.345628 11.296989 142.546848 -179.998823 75.750892 -0.001214 147.238041 38.476818 -64.36885 -90.072572 14.97944 0.082621 -5.32271 -69.078516 64.511278 179.989874 75.74806 0.006928 -136.443441 4.732116 -0.0 28.160883 80.344074 60.746452 -7.584896 -25.526781 -100.43266
0.3671 51.2719 -0.0585 -38.346653 79.776675 -36.168451 -0.16445 11.199143 -3.219814 1.23435 -12.213589 22.731313 -1.009493 13.673771 10.647601 8.036769 -23.581947 17.961043 0.000908 -0.0 -5e-05 0.001065 -0.0 -0.00119 -59.833771 -86.721156 -81.634443 0.985615 1.125581 -47.782584 -105.843461 51.098624 -121.841783 -146.315676 -79.546814 -160.991112 -5.433779 5.264881 1.078052 -28.280136 21.449741 27.603295 -45.476324 39.419532 35.671284 -89.32276 49.482657 66.231555 7.905557 -24.807368 -3.013495 -167.408735 -17.298999 144.205897 -0.006382 3.474058 1.090446 10.047647 0.029562 -0.065493 -151.104934 33.05948 -146.771272 65.475535 83.578949 -28.067489 142.973589 39.431523 -147.389835 -133.280575 -28.338288 -170.465903 -172.408544 45.135693 -65.092271 -154.043651 -35.636992 -139.957406 0.543616 0.536361 -0.085883 163.359307 -72.422171 -114.379645 148.885269 -12.6099 -120.245066 62.460433 57.286819 -45.898811 -173.123864 -66.297846 -137.614289 172.418274 -31.328574 -143.776877 31.712929 -66.108176 46.285599 -14.582587 -1.689978 3.5495 -0.466069 1.226175 -0.42952 154.640194 38.149832 148.553528 -179.97489 75.750943 -0.020661 145.178684 39.072929 23.110825 106.434217 74.66583 109.583043 127.937701 -45.838691 -162.417133 0.000698 -0.00095 -0.000897 70.955145 -44.430711 -180.0 86.78226 -16.75395 127.759801 59.257124 -16.255406 162.177631
0.4201 51.2224 -0.08 -38.629668 79.684693 -36.454341 0.073624 6.424376 -174.047229 0.398515 7.543339 -166.608081 9.967038 24.6189 104.685167 -32.178929 7.142489 -76.159797 0.001644 0.0 0.003276 0.001184 -0.0 -0.001273 -44.919897 -86.287681 -66.528353 82.025575 45.788009 -81.430656 -108.895584 -62.04744 91.326137 -154.504539 7.906481 143.778155 -174.613471 -12.272774 89.846646 -138.319468 11.177853 70.323824 -108.427313 34.16069 91.742845 3.706472 4.830392 -5.792081 179.736026 -58.401221 141.96093 167.300304 -63.976982 132.598705 -73.162561 -72.141389 -90.198654 13.943495 29.196947 -0.641808 12.249533 41.425376 10.281239 -127.843025 -30.9132 -125.407264 -0.323902 -1.990521 0.43614 108.534053 -1.680746 -141.475448 -12.190676 -25.477964 117.236137 -153.369122 -36.623998 -139.407105 -171.559665 -25.004876 -87.391992 70.819972 10.074937 -17.983266 2.687053 4.226699 -1.582847 166.809775 -20.338803 -109.628125 10.976404 25.789664 -7.640744 162.902704 -3.927551 -143.240579 -0.00218 0.063525 -0.02119 156.537803 -27.665725 -175.091038 -9.640659 31.201634 -8.372184 146.433418 6.936139 142.329932 -0.00692 0.000208 -0.00346 -30.949001 -29.574397 149.066203 -93.587474 -80.673339 -176.663578 -32.481194 20.239134 -108.242736 -0.00692 0.000208 -0.00346 70.229254 -44.215791 141.839152 78.767722 9.89932 -33.355722 -151.070036 -13.103416 49.074249
0.4615 51.1752 -0.11379999999999998 -38.830942 79.578968 -36.675502 -0.054246 6.447246 -180.0 -0.616029 7.60228 -160.597365 -4.947161 14.520972 -10.64333 20.612442 -18.79939 41.222403 -0.003348 0.0 -5e-05 -0.003348 0.0 -5e-05 -44.039338 64.187465 46.709582 -111.605465 7.742922 118.428025 -64.081288 39.795404 -112.39759 -162.511593 -18.090245 154.969516 -4.165455 4.057933 0.783142 6.351932 -7.009504 -2.164743 45.282851 -63.86536 4.305229 -3.413695 27.909189 4.504534 7.904794 -24.807518 -3.012582 -4.810468 20.783589 4.271658 -145.121931 1.974227 -179.749292 11.972243 44.709337 -3.857617 9.909432 32.238237 8.580491 63.226662 85.687298 -25.553884 155.613552 -4.236452 -161.991017 -76.649192 64.613276 108.442779 174.361549 -38.988123 -59.239095 -146.198164 -45.252262 -133.293008 161.772759 0.529268 -89.181812 -100.208831 -60.366694 -72.188004 -15.559588 -27.950351 5.749876 6.667987 26.573684 -7.510241 160.099857 -4.901077 -142.96816 -29.969364 -60.065675 -7.103309 69.295794 72.946207 -87.017269 159.124896 26.771019 -172.59101 132.78063 -17.596644 130.287001 145.826638 8.393832 141.073422 -0.001341 0.001661 -0.001676 -30.179586 -27.453418 -0.0 78.06404 53.11575 -44.545881 -133.382686 37.691589 29.407627 -0.001341 0.001661 -0.001676 70.836073 -44.481164 160.201605 77.221472 1.631251 -133.123108 139.497687 -2.746826 -53.829219
0.4719 51.131499999999996 -0.1769 -38.483411 79.513781 -36.386467 -0.043565 6.541627 -179.159561 -0.480426 7.67557 -161.489733 7.718406 17.908522 63.254203 -22.554157 -14.205606 -39.651552 6.1e-05 -0.0 -0.000564 0.000683 0.0 0.00281 -150.012481 22.065309 155.097215 -135.146635 54.433219 90.463825 153.249843 7.504764 -52.891878 -22.479036 -13.511664 -0.032134 -2.814291 2.754082 0.497814 -122.893668 -16.016028 109.734592 -100.823617 37.734395 85.162606 -162.025209 -6.472294 115.373116 -0.057943 0.167904 0.031245 3.166928 0.194132 -0.001084 -72.352164 72.973239 90.218934 -60.318052 -82.15595 -77.309878 -120.229814 -33.971583 -118.1157 2.926942 -0.651541 -1.74695 9.651805 34.836162 -11.19927 -100.125796 -27.059742 -77.82682 10.449814 -4.665976 -86.310008 4.995362 37.596589 -3.953037 80.965544 38.736121 -44.498828 -14.98813 -22.229411 -21.636827 171.931939 -50.760046 -120.554664 156.700986 -12.685414 -118.850526 169.089979 -33.247525 -145.373815 167.524501 -17.341429 -143.84824 70.37875 -72.13157 87.2791 147.489524 -45.464891 176.200191 -6.644511 20.225408 -5.927081 154.643363 36.587717 148.247937 179.820979 75.750193 0.137981 145.932397 36.994057 -180.0 102.385998 -78.219754 -174.422577 67.479253 44.232531 45.105084 -179.989173 75.748233 -0.007408 -135.40154 3.21024 -86.74964 -76.758146 4.241476 105.405443 61.274659 -22.629361 -27.70612
0.4306 51.073 -0.2408 -37.716598 79.437443 -35.660872 -0.123482 11.371245 -0.724307 0.783985 -12.446719 20.158295 -8.231601 31.421309 -126.250928 22.753292 38.427489 148.547188 -0.001113 0.0 -0.001441 -0.001113 0.0 -0.001441 -150.119712 21.700952 155.219243 124.695049 -24.521753 145.45455 -14.966973 7.340569 119.129932 -26.636055 -74.249134 -32.571416 1.842985 -1.826904 -0.254196 37.029515 -63.378 -19.052835 14.653314 -26.29132 -5.616766 -63.919987 49.416211 51.43752 7.904075 -24.80757 -3.015059 -34.464326 55.138036 28.983953 -70.377473 -72.130263 -87.279946 -79.219181 83.12599 97.067392 -23.389613 -36.34957 -22.493789 3.084147 -0.253183 -0.335621 6.042115 25.599297 -7.233611 167.537984 -24.126225 -113.011645 -33.578824 86.274702 -56.471492 12.156547 53.899261 -6.645047 166.631138 -4.305118 -89.770675 -36.871626 -63.472335 -30.716785 151.352802 -17.158494 -121.133168 62.153802 57.359413 -46.047296 158.520746 -0.192344 -142.145116 163.485672 -5.441383 -143.035422 145.117748 0.186343 179.184829 -11.042111 11.146918 7.674884 144.782474 10.845167 141.478964 85.050386 -51.990587 84.458053 -0.000352 -0.001672 0.000452 -29.961888 -27.683145 -15.55411 83.957958 79.291804 -166.975349 15.538315 -37.475353 67.725674 -0.000494 -2.2e-05 0.000635 69.958715 -43.215529 63.023603 -54.053853 76.534574 -45.498389 111.383909 -53.831741 -153.049819
